:FULLY-SPECIFIED
:FORCE-ALL-JOINTS-BE-3DOF
:DEGREES
883
root 3.85195 16.5305 30.5312 -10.8246 23.6768 359.35
lfemur -15.8095 19.9983 -19.0116
ltibia 40.4913 0 0
lfoot -12.9326 0.0690648 0
ltoes -1.37978 0 0
rfemur -80.7132 -24.4467 36.5168
rtibia 101.126 0 0
rfoot 19.264 26.205 0
rtoes -8.14353 0 0
lowerback 15.0059 -4.01209 -6.64789
upperback 4.97444 -6.28636 -2.38034
thorax -2.64296 -3.11384 2.26165
lowerneck -7.71871 -3.24517 1.71638
upperneck 4.65939 -4.84264 4.94114
head 2.93726 -2.18998 1.06474
lclavicle -3.12092e-14 -4.77083e-15 0
lhumerus -33.0312 -40.5423 88.3441
lradius 60.5977 0 0
lwrist 19.6497 0 0
lhand 25.8347 11.8689 0
lfingers 7.12502 0 0
lthumb 49.9264 33.1302 0
rclavicle -3.12092e-14 -4.77083e-15 0
rhumerus -49.2556 -29.6742 -46.9493
rradius 72.2992 0 0
rwrist -23.3678 0 0
rhand -47.7649 -54.4874 0
rfingers 7.12502 0 0
rthumb -20.4424 -803.431 0
884
root 3.83103 16.5368 30.6022 -10.215 24.5495 359.024
lfemur -16.6461 21.2053 -18.7989
ltibia 40.8064 0 0
lfoot -13.1102 0.756449 0
ltoes -1.70577 0 0
rfemur -78.9285 -25.4218 34.857
rtibia 103.952 0 0
rfoot 19.9219 25.8784 0
rtoes -6.81739 0 0
lowerback 14.3579 -4.23495 -6.57015
upperback 4.71023 -6.52368 -2.23977
thorax -2.54503 -3.23206 2.35887
lowerneck -7.73326 -3.43544 1.56564
upperneck 4.82959 -5.09692 5.02972
head 3.01056 -2.31136 1.10589
lclavicle -3.46423e-14 -3.54219e-15 0
lhumerus -33.7309 -41.3763 89.6872
lradius 60.4508 0 0
lwrist 18.7472 0 0
lhand 26.4095 12.052 0
lfingers 7.12502 0 0
lthumb 50.4575 33.0752 0
rclavicle -3.46423e-14 -3.54219e-15 0
rhumerus -49.2235 -29.3039 -48.485
rradius 74.6464 0 0
rwrist -24.0708 0 0
rhand -49.3408 -56.7838 0
rfingers 7.12502 0 0
rthumb -21.9636 -805.72 0
885
root 3.80931 16.543 30.6765 -9.56645 25.3943 358.753
lfemur -17.5173 22.5019 -18.6776
ltibia 41.0872 0 0
lfoot -13.3327 1.01719 0
ltoes -1.78744 0 0
rfemur -76.4987 -26.5646 32.9012
rtibia 106.417 0 0
rfoot 20.1719 25.0231 0
rtoes -6.26811 0 0
lowerback 13.6612 -4.42894 -6.56362
upperback 4.4104 -6.73394 -2.09977
thorax -2.45097 -3.33668 2.47992
lowerneck -7.74267 -3.64641 1.4073
upperneck 4.95702 -5.37557 5.10995
head 3.06995 -2.44642 1.14439
lclavicle -4.02813e-14 -2.35759e-15 0
lhumerus -34.6992 -42.1531 91.1608
lradius 60.5058 0 0
lwrist 17.7714 0 0
lhand 26.7612 12.0537 0
lfingers 7.12502 0 0
lthumb 50.7812 32.9215 0
rclavicle -4.02813e-14 -2.35759e-15 0
rhumerus -49.1255 -28.5799 -50.3357
rradius 77.1697 0 0
rwrist -24.4094 0 0
rhand -50.1883 -58.7594 0
rfingers 7.12502 0 0
rthumb -22.7827 -807.732 0
886
root 3.78764 16.5484 30.7528 -8.89563 26.1863 358.535
lfemur -18.4039 23.8209 -18.6263
ltibia 41.3541 0 0
lfoot -13.5853 0.969244 0
ltoes -1.67765 0 0
rfemur -73.5875 -27.7399 30.7288
rtibia 108.491 0 0
rfoot 20.1063 23.7137 0
rtoes -6.17746 0 0
lowerback 12.9326 -4.59226 -6.60018
upperback 4.08815 -6.91139 -1.96463
thorax -2.36021 -3.42488 2.60799
lowerneck -7.74638 -3.87179 1.24119
upperneck 5.04864 -5.67029 5.18016
head 3.11727 -2.59095 1.1802
lclavicle -4.70035e-14 -1.39091e-15 0
lhumerus -35.8618 -42.8553 92.7179
lradius 60.7055 0 0
lwrist 16.7735 0 0
lhand 26.9508 11.9439 0
lfingers 7.12502 0 0
lthumb 50.9541 32.7163 0
rclavicle -4.70035e-14 -1.39091e-15 0
rhumerus -48.975 -27.5512 -52.4315
rradius 79.8107 0 0
rwrist -24.4234 0 0
rhand -50.3218 -60.278 0
rfingers 7.12502 0 0
rthumb -22.9134 -809.316 0
887
root 3.76685 16.5524 30.8297 -8.21917 26.9005 358.363
lfemur -19.2869 25.0957 -18.6232
ltibia 41.6274 0 0
lfoot -13.8534 0.730541 0
ltoes -1.42928 0 0
rfemur -70.3587 -28.8122 28.4194
rtibia 110.141 0 0
rfoot 19.8173 22.0248 0
rtoes -6.22723 0 0
lowerback 12.189 -4.72313 -6.65171
upperback 3.75666 -7.05027 -1.83864
thorax -2.27217 -3.49386 2.72624
lowerneck -7.74382 -4.10527 1.06713
upperneck 5.11136 -5.97279 5.23871
head 3.15436 -2.74075 1.21327
lclavicle -5.36861e-14 -8.15997e-16 0
lhumerus -37.1444 -43.4655 94.3114
lradius 60.9928 0 0
lwrist 15.8043 0 0
lhand 27.0395 11.7928 0
lfingers 7.12502 0 0
lthumb 51.0331 32.5064 0
rclavicle -5.36861e-14 -8.15997e-16 0
rhumerus -48.7855 -26.2668 -54.7022
rradius 82.5111 0 0
rwrist -24.1527 0 0
rhand -49.7559 -61.2038 0
rfingers 7.12502 0 0
rthumb -22.3694 -810.321 0
888
root 3.74778 16.5541 30.906 -7.55372 27.5121 358.235
lfemur -20.1471 26.259 -18.6469
ltibia 41.9273 0 0
lfoot -14.1224 0.419027 0
ltoes -1.0952 0 0
rfemur -66.9762 -29.6461 26.0522
rtibia 111.337 0 0
rfoot 19.3972 20.031 0
rtoes -6.09922 0 0
lowerback 11.447 -4.81976 -6.69009
upperback 3.42914 -7.14484 -1.72608
thorax -2.18628 -3.54081 2.81787
lowerneck -7.73442 -4.34055 0.884976
upperneck 5.15214 -6.27479 5.28396
head 3.18306 -2.89161 1.24356
lclavicle -5.92064e-14 -8.06724e-16 0
lhumerus -38.4727 -43.9664 95.8943
lradius 61.3108 0 0
lwrist 14.915 0 0
lhand 27.0883 11.6705 0
lfingers 7.12502 0 0
lthumb 51.0749 32.3391 0
rclavicle -5.92064e-14 -8.06724e-16 0
rhumerus -48.5702 -24.7758 -57.0779
rradius 85.2125 0 0
rwrist -23.637 0 0
rhand -48.505 -61.4006 0
rfingers 7.12502 0 0
rthumb -21.1645 -810.596 0
889
root 3.73128 16.5529 30.9803 -6.91594 27.9961 358.147
lfemur -20.9654 27.2441 -18.6758
ltibia 42.2743 0 0
lfoot -14.3775 0.152645 0
ltoes -0.728272 0 0
rfemur -63.6036 -30.1062 23.7066
rtibia 112.048 0 0
rfoot 18.9384 17.807 0
rtoes -5.4752 0 0
lowerback 10.7237 -4.88034 -6.6872
upperback 3.11876 -7.18933 -1.63125
thorax -2.10199 -3.56292 2.86603
lowerneck -7.71764 -4.57135 0.694538
upperneck 5.17789 -6.56798 5.31424
head 3.20519 -3.03933 1.27101
lclavicle -6.24417e-14 -1.53695e-15 0
lhumerus -39.7726 -44.3404 97.4195
lradius 61.6022 0 0
lwrist 14.1565 0 0
lhand 27.1583 11.6471 0
lfingers 7.12502 0 0
lthumb 51.1361 32.2613 0
rclavicle -6.24417e-14 -1.53695e-15 0
rhumerus -48.3426 -23.1272 -59.4885
rradius 87.8568 0 0
rwrist -22.9162 0 0
rhand -46.5836 -60.7324 0
rfingers 7.12502 0 0
rthumb -19.3124 -809.991 0
890
root 3.71818 16.5479 31.0514 -6.32248 28.3277 358.093
lfemur -21.7226 27.984 -18.6884
ltibia 42.6887 0 0
lfoot -14.604 0.0493379 0
ltoes -0.381373 0 0
rfemur -60.4049 -30.057 21.4621
rtibia 112.241 0 0
rfoot 18.5331 15.4272 0
rtoes -4.03696 0 0
lowerback 10.0357 -4.9031 -6.61491
upperback 2.83873 -7.178 -1.55844
thorax -2.0187 -3.55739 2.85392
lowerneck -7.69289 -4.79134 0.495652
upperneck 5.19557 -6.84408 5.32792
head 3.2226 -3.17971 1.29558
lclavicle -6.22693e-14 -3.18055e-15 0
lhumerus -40.9697 -44.5703 98.84
lradius 61.8099 0 0
lwrist 13.5798 0 0
lhand 27.3106 11.7927 0
lfingers 7.12502 0 0
lthumb 51.2736 32.3201 0
rclavicle -6.22693e-14 -3.18055e-15 0
rhumerus -48.1161 -21.3701 -61.8639
rradius 90.3854 0 0
rwrist -22.0301 0 0
rhand -44.006 -59.0633 0
rfingers 7.12502 0 0
rthumb -16.827 -808.354 0
891
root 3.70985 16.5379 31.1202 -5.76494 28.5097 358.083
lfemur -22.4494 28.4688 -18.7248
ltibia 43.1921 0 0
lfoot -14.8198 0.091513 0
ltoes -0.0511361 0 0
rfemur -57.2171 -29.3815 19.23
rtibia 111.838 0 0
rfoot 18.1726 12.6853 0
rtoes -1.69134 0 0
lowerback 9.36242 -4.88498 -6.46964
upperback 2.58504 -7.10569 -1.50583
thorax -1.93133 -3.52171 2.77739
lowerneck -7.65713 -5.01061 0.277112
upperneck 5.19703 -7.11431 5.31629
head 3.23259 -3.31916 1.31575
lclavicle -5.7675e-14 -6.75056e-15 0
lhumerus -42.1298 -44.6405 100.203
lradius 61.9749 0 0
lwrist 13.2116 0 0
lhand 27.5295 12.1351 0
lfingers 7.12502 0 0
lthumb 51.4727 32.5482 0
rclavicle -5.7675e-14 -6.75056e-15 0
rhumerus -47.8678 -19.4382 -64.2658
rradius 92.8753 0 0
rwrist -20.77 0 0
rhand -40.3278 -55.9367 0
rfingers 7.12502 0 0
rthumb -13.2777 -805.256 0
892
root 3.70599 16.523 31.1882 -5.22571 28.5651 358.123
lfemur -23.173 28.7549 -18.8177
ltibia 43.7737 0 0
lfoot -15.0439 0.168469 0
ltoes 0.310557 0 0
rfemur -53.8405 -28.1609 16.9102
rtibia 110.841 0 0
rfoot 17.772 9.44603 0
rtoes 1.30986 0 0
lowerback 8.68203 -4.82656 -6.2752
upperback 2.34463 -6.97579 -1.46901
thorax -1.83868 -3.45753 2.65001
lowerneck -7.60983 -5.23813 0.0353349
upperneck 5.1734 -7.38979 5.27793
head 3.23263 -3.46354 1.33107
lclavicle -4.93187e-14 -1.24301e-14 0
lhumerus -43.3408 -44.5614 101.568
lradius 62.1615 0 0
lwrist 13.0155 0 0
lhand 27.7556 12.6213 0
lfingers 7.12502 0 0
lthumb 51.6781 32.9148 0
rclavicle -4.93187e-14 -1.24301e-14 0
rhumerus -47.5781 -17.266 -66.777
rradius 95.4039 0 0
rwrist -19.031 0 0
rhand -35.388 -51.3214 0
rfingers 7.12502 0 0
rthumb -8.50884 -800.689 0
